<svg width="100" height="100" viewBox="0 0 100 100" fill="none" xmlns="http://www.w3.org/2000/svg">
<path d="M82.3256 32.8483C82.9923 33.2332 82.9923 34.1954 82.3256 34.5803L68.5 42.5625C67.8333 42.9474 67 42.4663 67 41.6965V25.7321C67 24.9623 67.8333 24.4811 68.5 24.866L82.3256 32.8483Z" fill="white"/>
<path d="M82.3256 64.4197C82.9923 64.8046 82.9923 65.7668 82.3256 66.1517L68.5 74.134C67.8333 74.5189 67 74.0377 67 73.2679V57.3035C67 56.5337 67.8333 56.0526 68.5 56.4375L82.3256 64.4197Z" fill="white"/>
<path d="M15 30.0714C12.9881 30.0714 11.3571 31.7024 11.3571 33.7143C11.3571 35.7262 12.9881 37.3571 15 37.3571V30.0714ZM15 37.3571C22.2339 37.3571 26.3624 39.1438 29.1425 41.4507C32.0774 43.886 33.9 47.1816 36.0783 51.2271C38.15 55.0745 40.5774 59.6717 44.7765 63.1561C49.1303 66.7688 55.0196 68.9286 63.5714 68.9286V61.6429C56.3375 61.6429 52.209 59.8562 49.4289 57.5493C46.4941 55.114 44.6715 51.8184 42.4931 47.7729C40.4215 43.9255 37.9941 39.3283 33.795 35.8439C29.4412 32.2312 23.5518 30.0714 15 30.0714V37.3571ZM63.5714 68.9286H72.6786V61.6429H63.5714V68.9286Z" fill="white"/>
<path d="M15.0967 68.9286C13.0848 68.9286 11.4539 67.2976 11.4539 65.2857C11.4539 63.2738 13.0848 61.6428 15.0967 61.6428V68.9286ZM15.0967 61.6428C22.4081 61.6428 26.5854 59.8519 29.3972 57.5392C32.3607 55.1017 34.1996 51.805 36.3963 47.7611C38.4872 43.9122 40.9359 39.316 45.1694 35.8339C49.5547 32.2269 55.4839 30.0714 64.098 30.0714V37.3571C56.7867 37.3571 52.6094 39.148 49.7976 41.4608C46.8341 43.8983 44.9952 47.195 42.7984 51.2389C40.7076 55.0878 38.2588 59.684 34.0253 63.1661C29.64 66.773 23.7108 68.9286 15.0967 68.9286V61.6428ZM64.098 30.0714H73.2857V37.3571H64.098V30.0714Z" fill="white"/>
</svg>
